<mxfile host="Electron" agent="Mozilla/5.0 (Windows NT 10.0; Win64; x64) AppleWebKit/537.36 (KHTML, like Gecko) draw.io/27.0.9 Chrome/134.0.6998.205 Electron/35.4.0 Safari/537.36" version="27.0.9">
  <diagram name="Page-1" id="fNs06hzbJlrYn-EE1Gt4">
    <mxGraphModel dx="1098" dy="471" grid="1" gridSize="10" guides="1" tooltips="1" connect="1" arrows="1" fold="1" page="1" pageScale="1" pageWidth="850" pageHeight="1100" math="0" shadow="0">
      <root>
        <mxCell id="0" />
        <mxCell id="1" parent="0" />
        <mxCell id="1l99TUjujsEhbf__PnpC-1" value="Batch" style="rounded=0;whiteSpace=wrap;html=1;" vertex="1" parent="1">
          <mxGeometry x="210" y="130" width="310" height="320" as="geometry" />
        </mxCell>
        <mxCell id="1l99TUjujsEhbf__PnpC-2" value="Sequence" style="rounded=0;whiteSpace=wrap;html=1;" vertex="1" parent="1">
          <mxGeometry x="210" y="310" width="310" height="110" as="geometry" />
        </mxCell>
        <mxCell id="1l99TUjujsEhbf__PnpC-4" value="D_model" style="rounded=0;whiteSpace=wrap;html=1;" vertex="1" parent="1">
          <mxGeometry x="440" y="310" width="20" height="110" as="geometry" />
        </mxCell>
        <mxCell id="1l99TUjujsEhbf__PnpC-5" value="Batch size:&lt;div&gt;B&lt;/div&gt;" style="text;html=1;align=center;verticalAlign=middle;whiteSpace=wrap;rounded=0;" vertex="1" parent="1">
          <mxGeometry x="100" y="140" width="150" height="30" as="geometry" />
        </mxCell>
        <mxCell id="1l99TUjujsEhbf__PnpC-6" value="Seq length T" style="text;html=1;align=center;verticalAlign=middle;whiteSpace=wrap;rounded=0;" vertex="1" parent="1">
          <mxGeometry x="220" y="310" width="60" height="30" as="geometry" />
        </mxCell>
        <mxCell id="1l99TUjujsEhbf__PnpC-8" value="" style="endArrow=none;dashed=1;html=1;dashPattern=1 3;strokeWidth=2;rounded=0;exitX=-0.007;exitY=0.154;exitDx=0;exitDy=0;exitPerimeter=0;entryX=1.005;entryY=0.149;entryDx=0;entryDy=0;entryPerimeter=0;" edge="1" parent="1">
          <mxGeometry width="50" height="50" relative="1" as="geometry">
            <mxPoint x="208" y="221" as="sourcePoint" />
            <mxPoint x="522" y="220" as="targetPoint" />
          </mxGeometry>
        </mxCell>
        <mxCell id="1l99TUjujsEhbf__PnpC-9" value="" style="endArrow=none;dashed=1;html=1;dashPattern=1 3;strokeWidth=2;rounded=0;exitX=-0.007;exitY=0.154;exitDx=0;exitDy=0;exitPerimeter=0;entryX=1.005;entryY=0.149;entryDx=0;entryDy=0;entryPerimeter=0;" edge="1" parent="1">
          <mxGeometry width="50" height="50" relative="1" as="geometry">
            <mxPoint x="209" y="181" as="sourcePoint" />
            <mxPoint x="523" y="180" as="targetPoint" />
          </mxGeometry>
        </mxCell>
        <mxCell id="1l99TUjujsEhbf__PnpC-10" value="D_model" style="rounded=0;whiteSpace=wrap;html=1;" vertex="1" parent="1">
          <mxGeometry x="620" y="40" width="160" height="530" as="geometry" />
        </mxCell>
        <mxCell id="1l99TUjujsEhbf__PnpC-11" value="Head" style="rounded=0;whiteSpace=wrap;html=1;" vertex="1" parent="1">
          <mxGeometry x="620" y="380" width="160" height="120" as="geometry" />
        </mxCell>
        <mxCell id="1l99TUjujsEhbf__PnpC-12" value="X&amp;nbsp; (B, T, D)" style="text;html=1;align=center;verticalAlign=middle;whiteSpace=wrap;rounded=0;" vertex="1" parent="1">
          <mxGeometry x="150" y="500" width="150" height="30" as="geometry" />
        </mxCell>
        <mxCell id="1l99TUjujsEhbf__PnpC-13" value="MHD&amp;nbsp; (B, T, D)" style="text;html=1;align=center;verticalAlign=middle;whiteSpace=wrap;rounded=0;" vertex="1" parent="1">
          <mxGeometry x="150" y="535" width="150" height="30" as="geometry" />
        </mxCell>
      </root>
    </mxGraphModel>
  </diagram>
</mxfile>
